<svg xmlns="http://www.w3.org/2000/svg" width="84" height="48" fill="none"><path fill="#3E4744" d="M30.714 9.16c-1.16.1-2.07 1.02-2.11 2.16-.01.4-.03.79-.04 1.19 0 .22-.31.3-.43.11-.22-.34-1.08-1.68-1.31-2.02l-.11-.17c-.01-.02-.02-.03-.04-.05l-.02-.02s0-.01-.01-.02c-.07-.07-.14-.14-.22-.2a2.29 2.29 0 0 0-.51-.32c-.37-.17-.78-.24-1.19-.21-1.5.13-3.01.25-4.51.38-1.16.1-2.07 1.02-2.11 2.16-.04 1.19-.09 2.38-.13 3.559 0 .2-.26.29-.4.14-.11-.12-.27-.25-.4-.34-.15-.1-.3-.18-.47-.25-.341-.13-.691-.18-1.051-.15-4.31.36-8.61.73-12.921 1.09-1.16.1-2.07 1.02-2.11 2.16-.21 5.688-.41 11.376-.62 17.064-.02.49.13.97.42 1.37 1.18 1.83 2.35 3.65 3.53 5.479.59.91 1.18 1.83 1.77 2.739l.51.78c.03.04.06.09.09.13 0 .01.02.02.02.03l.01.01.02.01c.11.1.22.21.35.3.4.29.88.44 1.38.44h.18c4.73-.4 9.461-.8 14.192-1.19.09 0 .18-.03.27-.05.11-.02.16-.03.27-.07.04-.02.09-.03.13-.05.04-.02.09-.03.13-.05.08-.04.16-.08.24-.13.09-.06.21-.05.28.02.48.43 1.12.65 1.78.59 1.5-.13 3.01-.25 4.51-.38 1.16-.1 2.07-1.02 2.11-2.16 0-.12 0-.25.01-.37 0-.11.09-.21.21-.22 7.97-.67 15.941-1.35 23.922-2.019.56-.05 1.08-.29 1.47-.69.1-.11.28-.09.36.04.9 1.4 1.81 2.81 2.71 4.209.19.3.39.59.61.87.22.28.47.53.74.77.54.48 1.12.88 1.77 1.21 1.29.65 2.74.959 4.181.959 3.3 0 6.53-1.61 8.47-4.199.49-.65.88-1.34 1.17-2.1.53-1.539.68-3.098.43-4.678-.26-.76-.62-1.48-1.04-2.17-.09-.14 0-.32.18-.34h.04c1.16-.1 2.07-1.03 2.11-2.159l.15-4.149c0-.11.09-.21.21-.22l1.851-.16c1.16-.1 2.07-1.02 2.11-2.159.05-1.32.1-2.63.14-3.949.02-.49-.13-.97-.42-1.37-1.11-1.729-2.22-3.449-3.33-5.178-.56-.86-1.11-1.72-1.67-2.59-.19-.3-.39-.6-.58-.9-.08-.13-.17-.26-.26-.389l-.06-.09s-.01-.02-.02-.03v-.01c-.01-.02-.03-.03-.05-.05-.03-.03-.06-.06-.1-.09-.1-.09-.2-.17-.32-.24a2.2 2.2 0 0 0-.74-.31.207.207 0 0 1-.14-.1c-.61-.95-1.23-1.91-1.84-2.859-.15-.24-.31-.48-.46-.71l-.18-.27c-.01-.02-.03-.04-.05-.06 0 0-.01-.02-.02-.02v-.01c0-.01-.02-.02-.03-.03-.09-.08-.18-.17-.28-.24-.46-.35-1.04-.52-1.63-.47-1.16.1-2.31.19-3.471.29-.08 0-.17-.03-.21-.1-.97-1.42-1.95-2.839-2.92-4.248a3.144 3.144 0 0 0-2-1.4 3.2 3.2 0 0 0-2.95.84c-.1.1-.26.09-.35-.02-.12-.15-.32-.32-.47-.43-.17-.13-.35-.24-.55-.33-.39-.18-.81-.29-1.25-.3-1.14-.05-2.201.52-2.811 1.44-.07.11-.23.14-.34.05-.5-.39-1.1-.64-1.74-.69-.63-.05-1.28.09-1.83.4-.55.31-1 .78-1.28 1.34s-.37 1.189-.27 1.799c.16.98.31 1.95.47 2.93a.23.23 0 0 1-.21.259l-18.922 1.59v.04Z"/><path fill="#fff" d="m72.177 12.88 4.11-.35-.14 3.968-4.11.35-.23 6.359-4.53.38.55-15.426 4.53-.38-.18 5.098ZM57.616 9.64c-3.82.23-7.15 3.27-7.62 6.948-.51 4.02 2.58 7.208 6.73 6.958 3.82-.23 7.16-3.269 7.63-6.958.51-4.009-2.58-7.198-6.75-6.948h.01Zm2.97 6.958c-.22 1.76-1.81 3.2-3.62 3.3-1.97.11-3.44-1.4-3.19-3.3.22-1.75 1.8-3.189 3.61-3.289 1.97-.12 3.44 1.39 3.2 3.29ZM68.897 25.916c-1.32-1.17-3.12-1.62-4.85-1.5-1.75.11-3.45.8-4.78 1.89-1.32 1.09-2.31 2.589-2.55 4.308-.26 1.74.33 3.43 1.67 4.61 1.34 1.169 3.13 1.619 4.86 1.499 1.74-.11 3.44-.8 4.77-1.89 1.34-1.09 2.32-2.589 2.57-4.308.24-1.74-.33-3.43-1.68-4.61h-.01Zm-2.17 4.619c-.1.76-.56 1.41-1.15 1.88-.59.459-1.35.759-2.11.809-.75.06-1.56-.12-2.15-.62-.6-.51-.88-1.24-.77-2.01.12-.76.57-1.41 1.16-1.879a3.89 3.89 0 0 1 2.1-.81c.75-.06 1.56.12 2.16.62.6.51.87 1.24.75 2.01h.01Z"/><path fill="#fff" d="m41.465 26.286.1-3.08 6.42-.53.48-12.936-17.4 1.47-.46 12.926 6.43-.54-.12 3.08-9.291.78-.14 3.848 23.132-1.95.14-3.848-9.291.79v-.01Zm-6.48-6.389.19-5.218 8.92-.76-.2 5.229-8.91.74v.01ZM16.583 34.244l-14.261 1.2.62-17.156 12.98-1.09-.14 3.88-8.74.729-.34 9.397 10.02-.85-.14 3.89Z"/><path fill="#fff" d="m24.713 20.617 4.11-.35-.14 3.97-4.11.35-.34 9.547-4.53.38.8-22.464 4.54-.38-.33 8.947Z"/><path fill="#F8E352" d="M57.686 6.491h-.03c-.48-.02-.86-.41-.84-.88l.1-2.749c.02-.47.47-.83.9-.81.48.02.86.41.84.88l-.1 2.75c-.02.46-.4.81-.87.81ZM53.196 7.201a.87.87 0 0 1-.86-.72l-.42-2.66c-.07-.459.25-.889.73-.959.47-.07.92.24.99.71l.42 2.66c.07.46-.25.889-.73.959h-.13v.01ZM62.176 6.661c-.06 0-.13 0-.19-.02a.839.839 0 0 1-.66-1.01l.62-2.749c.1-.46.58-.75 1.04-.64.47.1.77.55.66 1.01l-.62 2.75c-.09.39-.45.66-.85.66Z"/></svg>