<?xml version="1.0" encoding="UTF-8"?>
<svg id="_레이어_2" data-name="레이어 2" xmlns="http://www.w3.org/2000/svg" viewBox="0 0 451.74 293.63">
  <defs>
    <style>
      .cls-1 {
        fill: #000;
      }

      .cls-1, .cls-2, .cls-3 {
        stroke-width: 0px;
      }

      .cls-2 {
        fill: #fff;
      }

      .cls-3 {
        fill: #f9e453;
      }
    </style>
  </defs>
  <g id="Layer_1" data-name="Layer 1">
    <g>
      <path class="cls-1" d="M449.53,143.77c-.18-.44-.4-.87-.64-1.29-.19-.45-.41-.88-.65-1.31-.19-.45-.41-.88-.65-1.29-.19-.45-.41-.88-.65-1.3-.18-.44-.4-.87-.64-1.29-.19-.45-.41-.88-.65-1.31-.19-.44-.41-.87-.65-1.29-.19-.45-.41-.88-.65-1.3-.18-.44-.4-.87-.64-1.29-.19-.45-.41-.88-.65-1.31-.19-.44-.41-.87-.65-1.29-.19-.45-.41-.88-.65-1.3-.18-.44-.4-.87-.64-1.29-.19-.45-.41-.88-.65-1.31-.19-.44-.41-.87-.65-1.29-.19-.45-.41-.88-.65-1.3-.19-.45-.41-.88-.65-1.3-.18-.44-.4-.87-.64-1.29-.19-.45-.41-.88-.65-1.31-.19-.45-.41-.87-.65-1.29-.19-.45-.41-.88-.65-1.3-.18-.44-.4-.87-.64-1.29-.19-.45-.41-.88-.65-1.31-.19-.44-.41-.87-.65-1.29-.19-.45-.41-.88-.65-1.3-.18-.44-.4-.87-.64-1.29-.19-.45-.41-.88-.65-1.31-.19-.44-.41-.87-.65-1.29-.19-.45-.41-.88-.65-1.3-.18-.44-.4-.87-.64-1.29-.19-.45-.41-.88-.65-1.31-.19-.45-.41-.87-.65-1.29-.19-.45-.41-.88-.65-1.3-.19-.45-.41-.88-.65-1.3-.18-.44-.4-.87-.64-1.29-.19-.45-.41-.88-.65-1.31-.19-.45-.41-.87-.65-1.29-.19-.45-.41-.88-.65-1.3-.19-.44-.4-.87-.64-1.29-.19-.45-.41-.88-.65-1.31-.19-.45-.41-.88-.65-1.29-.19-.45-.41-.88-.65-1.3-.19-.44-.4-.87-.64-1.29-.19-.45-.41-.88-.65-1.31-.19-.44-.41-.87-.65-1.29-.19-.45-.41-.88-.65-1.3-.18-.44-.4-.87-.64-1.29-.19-.45-.41-.88-.65-1.31-.19-.44-.41-.87-.65-1.29-.62-1.48-1.54-2.83-2.72-3.96-1.97-1.87-4.51-2.97-7.18-3.17-.12-.24-.23-.47-.37-.7-.19-.45-.41-.88-.65-1.3-.19-.45-.41-.88-.65-1.29-.19-.45-.41-.88-.65-1.3-.19-.45-.41-.88-.65-1.3-.19-.45-.41-.88-.64-1.29-.19-.45-.41-.88-.65-1.3-.19-.45-.41-.88-.65-1.29-.19-.45-.41-.88-.65-1.3-.19-.45-.41-.87-.65-1.29-.19-.45-.41-.88-.65-1.3-.19-.45-.41-.88-.65-1.29-.19-.45-.41-.88-.65-1.3-.19-.45-.41-.87-.65-1.29-.19-.45-.41-.88-.65-1.3-.19-.45-.41-.88-.65-1.29-.19-.45-.41-.88-.65-1.3-.19-.45-.41-.87-.64-1.29-.19-.45-.41-.88-.65-1.3-.19-.45-.41-.88-.65-1.3-1.75-4.19-5.87-7.13-10.69-7.16h-.08c-.08,0-.15,0-.23,0h-.01c-.31,0-.61.02-.91.05l-13.37,1.16c-.19-.43-.4-.85-.63-1.26-.2-.44-.41-.87-.64-1.29-.2-.44-.41-.88-.65-1.3-.2-.44-.41-.87-.65-1.29-.2-.44-.41-.88-.65-1.3-.2-.44-.41-.87-.64-1.29-.2-.44-.41-.88-.65-1.3-.2-.44-.41-.87-.65-1.29-.2-.44-.41-.88-.65-1.3-.2-.44-.41-.88-.65-1.3-.2-.44-.41-.87-.64-1.29-.2-.44-.41-.88-.65-1.31-.2-.44-.41-.87-.65-1.29-.2-.44-.41-.88-.65-1.3-.2-.44-.4-.87-.64-1.29-.2-.44-.41-.88-.65-1.31-.2-.44-.41-.87-.65-1.29-.2-.44-.41-.88-.65-1.3-.2-.44-.41-.87-.64-1.29-.2-.44-.41-.88-.65-1.31-.2-.44-.41-.87-.65-1.29-.2-.44-.41-.88-.65-1.3-.2-.44-.41-.87-.64-1.29-.2-.44-.41-.88-.65-1.3-.2-.44-.41-.87-.65-1.29-.42-.93-.92-1.83-1.53-2.67-2.54-3.52-6.51-5.79-10.88-6.23-.53-.05-1.06-.08-1.58-.08h0c-7.61,0-14.33,5.42-15.99,12.89l-.7,3.14c-.15-.32-.32-.63-.49-.93-.19-.44-.41-.87-.65-1.29-.2-.44-.41-.88-.65-1.3-.19-.44-.41-.87-.64-1.29-.2-.45-.41-.88-.65-1.31-.2-.44-.41-.87-.65-1.29-.71-1.62-1.7-3.12-2.96-4.43-2.9-3.01-6.83-4.66-11.07-4.66-.46,0-.92.02-1.38.06-8.25.71-14.7,7.47-14.99,15.72l-.25,7.13c-.16-.33-.32-.66-.49-.97-.2-.44-.41-.88-.65-1.29-.2-.44-.41-.88-.65-1.3-.2-.44-.41-.87-.64-1.29-.2-.45-.41-.89-.65-1.31-.2-.44-.41-.88-.65-1.29-2.4-5.4-7.79-9.03-14.01-9.03-1.41,0-2.82.19-4.2.56-8,2.17-13.26,10.17-11.98,18.22l2.94,18.63c.29,1.86.91,3.6,1.79,5.16.2.45.41.88.65,1.3.2.44.41.87.64,1.29.2.45.41.89.65,1.31.04.1.09.2.14.3-1.39-.6-2.92-.93-4.53-.94h-.07c-.07,0-.14,0-.21,0-.32,0-.63.02-.94.05l-95.49,8.27c-5.87.51-10.44,5.32-10.65,11.21l-.39,10.99c-.16-.38-.35-.74-.56-1.1-.18-.44-.4-.87-.64-1.29-.19-.45-.41-.88-.65-1.31-.19-.45-.41-.87-.65-1.29-.19-.45-.41-.88-.65-1.3-.19-.44-.4-.87-.64-1.29-.19-.45-.41-.88-.65-1.31-.19-.45-.41-.88-.65-1.29-.62-1.48-1.54-2.83-2.72-3.96-2.18-2.07-5.06-3.21-8.03-3.21-.34,0-.67.01-1.01.04l-24.49,2.12c-5.87.51-10.44,5.32-10.65,11.21l-.95,26.78c-.1-.21-.21-.41-.33-.61-.19-.44-.4-.88-.65-1.29-.62-1.43-1.51-2.75-2.67-3.84-2.18-2.07-5.06-3.21-8.03-3.21-.34,0-.67.01-1.01.04l-69.63,6.03c-5.87.51-10.44,5.32-10.65,11.21L0,209.35c-.08,2.2.48,4.34,1.55,6.21.19.45.41.88.65,1.3.18.44.4.87.64,1.29.19.45.41.88.65,1.31.19.45.41.88.65,1.29.19.45.41.88.65,1.3.19.44.4.87.64,1.29.19.45.41.88.65,1.31.19.44.41.87.65,1.29.19.45.41.88.65,1.3.18.44.4.87.64,1.29.19.45.41.88.65,1.31.19.44.41.87.65,1.29.19.45.41.88.65,1.3.18.44.4.87.64,1.29.19.45.41.88.65,1.31.19.45.41.87.65,1.29.19.45.41.88.65,1.3.19.45.41.88.65,1.3.18.44.4.87.64,1.29.19.45.41.88.65,1.31.19.44.41.87.65,1.29.19.45.41.88.65,1.3.18.44.4.87.64,1.29.19.45.41.88.65,1.31.19.44.41.87.65,1.29.19.45.41.88.65,1.3.18.44.4.87.64,1.29.19.45.41.88.65,1.31.19.44.41.87.65,1.29.19.45.41.88.65,1.3.18.44.4.87.64,1.29.19.45.41.88.65,1.31.19.45.41.87.65,1.29.19.45.41.88.65,1.3.19.45.41.88.65,1.3.18.44.4.87.64,1.29.19.45.41.88.65,1.31.19.45.41.88.65,1.29.19.45.41.88.65,1.3.18.44.4.87.64,1.29.19.45.41.88.65,1.31.19.44.41.87.65,1.29.19.45.41.88.65,1.3.19.44.4.87.64,1.29.19.45.41.88.65,1.31.19.44.41.87.65,1.29.19.45.41.88.65,1.3.19.44.4.87.64,1.29.19.45.41.88.65,1.31.19.45.41.87.65,1.29.62,1.48,1.54,2.83,2.72,3.96,2.18,2.07,5.06,3.21,8.03,3.21.34,0,.67-.01,1.01-.04l80.37-6.96c1.33-.12,2.6-.45,3.76-.97,2.13,1.88,4.88,2.92,7.71,2.92.34,0,.67-.01,1.01-.04l24.49-2.12c5.87-.51,10.44-5.32,10.65-11.21l.25-7.12c.57.09,1.15.14,1.74.14.34,0,.67-.01,1.01-.04l124.83-10.81c5.53-.48,9.91-4.78,10.57-10.2.07.13.13.26.2.39.21.43.42.87.64,1.29.21.44.42.88.65,1.3.21.43.42.86.64,1.28.21.44.43.88.66,1.31.21.43.42.87.65,1.29.21.43.42.87.65,1.3.21.44.42.88.65,1.3.21.43.42.86.64,1.28.21.44.43.88.66,1.31.21.43.42.87.65,1.29.21.44.42.88.65,1.3.21.43.42.86.64,1.28.22.44.43.88.66,1.31.21.43.42.87.65,1.29.21.44.42.88.65,1.3.21.43.42.86.64,1.28.21.44.43.88.66,1.31.21.43.42.87.65,1.29.21.44.42.88.65,1.3.21.43.42.86.64,1.28.22.44.43.88.66,1.31.2.4.39.81.6,1.2,2.51,5.27,6.05,9.76,10.56,13.33,4.65,3.84,9.75,6.57,15.56,8.35.08.02.16.05.24.07,4.63,1.31,9.41,1.98,14.19,1.98,1.54,0,3.11-.07,4.67-.2,5.95-.51,12.12-2.14,18.33-4.84.14-.06.28-.13.42-.19,5.34-2.58,10.27-5.87,15.1-10.08.12-.11.24-.21.36-.33,4.29-4.06,7.91-8.92,10.76-14.42.08-.16.16-.31.23-.47,2.7-5.84,4.18-11.95,4.39-18.17.22-6.13-.84-11.97-3.24-17.85-.1-.25-.21-.49-.33-.74-.11-.23-.25-.43-.36-.66-.09-.21-.18-.43-.29-.64-.11-.23-.25-.44-.36-.66-.09-.21-.18-.43-.28-.63-.11-.22-.24-.43-.36-.65-.09-.22-.19-.43-.29-.65-.11-.23-.25-.44-.36-.66-.09-.21-.18-.43-.28-.63-.11-.23-.25-.44-.36-.66-.09-.21-.18-.43-.29-.64-.1-.21-.22-.39-.33-.6l1.14-.1c5.87-.51,10.44-5.32,10.65-11.21l.78-22.22,13.54-1.17c5.87-.51,10.44-5.32,10.65-11.21l.78-22.08c.08-2.2-.48-4.34-1.55-6.21-.19-.45-.41-.88-.65-1.3Z"/>
      <path class="cls-2" d="M36.2,186.13l56.71-4.91-.76,21.58-80.37,6.96,3.37-95.45,69.63-6.03-.76,21.58-45.97,3.98-1.85,52.29ZM131.77,127.38l23.99-2.08-.78,22.08-23.99,2.08-1.87,53.12-24.49,2.12,4.43-125.49,24.49-2.12-1.77,50.3Z"/>
      <path class="cls-2" d="M267.59,173.55l-124.83,10.81.76-21.58,50.17-4.34.6-17.1-35.4,3.06,2.55-72.21,95.63-8.28-2.55,72.21-35.74,3.09-.6,17.1,50.17-4.34-.76,21.58ZM231.46,116.6l1.02-29.05-48.15,4.17-1.02,29.05,48.15-4.17Z"/>
      <path class="cls-2" d="M299.8,144.84c-5.7.49-11.04-.04-15.99-1.93-4.96-1.56-9.22-4.17-12.61-7.68-3.73-3.15-6.6-7.21-8.44-12.01-2.17-4.78-2.99-10-2.79-15.81.2-5.64,1.39-11.04,3.92-16.23,2.19-5.15,5.36-9.73,9.36-13.88,3.65-3.79,8.11-6.99,13.22-9.75,5.1-2.43,10.51-4.05,16.22-4.55,5.7-.49,11.2.19,16.16,1.75,4.95,1.89,9.21,4.33,12.78,7.5,3.56,3.5,6.26,7.57,8.43,12.34,1.84,4.8,2.82,10.02,2.63,15.66-.21,5.81-1.57,11.22-3.76,16.38-2.52,5.18-5.53,9.74-9.34,13.55-3.83,4.14-8.29,7.5-13.4,9.93-5.12,2.76-10.69,4.24-16.39,4.73ZM301.94,84.25c-2.69.23-5.05.93-7.27,2.12-2.38,1.2-4.28,2.85-6.02,4.82-1.74,1.97-3.16,4.25-4.08,6.64-1.1,2.58-1.69,5.11-1.77,7.6-.1,2.82.32,5.27,1.24,7.5.75,2.42,2.02,4.46,3.64,5.97,1.61,1.85,3.4,3.18,5.71,3.97,2.15.81,4.48,1.1,7.16.87,2.52-.22,4.88-.92,7.27-2.12,2.22-1.18,4.28-2.85,6.03-4.99,1.74-1.8,3.15-4.08,4.25-6.66.92-2.4,1.51-4.93,1.61-7.75.09-2.49-.33-4.94-1.08-7.35-.92-2.24-2.19-4.28-3.8-5.96-1.61-1.68-3.57-3-5.72-3.81-2.31-.79-4.64-1.09-7.16-.87ZM301.24,184.93c.16-4.65,1.32-9.05,3.49-13.54,1.99-4.14,4.8-8.03,8.43-11.49,3.46-3.28,7.4-5.94,12.17-8.34,4.59-2.05,9.49-3.47,14.86-3.93,5.03-.43,9.86.14,14.5,1.39,4.46,1.6,8.41,3.57,11.99,6.24,3.24,2.86,5.8,6.28,7.67,10.09,1.7,4.16,2.55,8.38,2.38,13.03-.17,4.81-1.33,9.38-3.33,13.69-2.15,4.16-4.97,8.04-8.43,11.32-3.8,3.31-7.91,6.15-12.51,8.36-4.76,2.07-9.66,3.48-14.69,3.92-5.37.47-10.2-.11-14.67-1.38-4.63-1.42-8.4-3.58-11.65-6.27-3.42-2.68-5.97-6.1-7.68-9.93-1.87-3.98-2.72-8.37-2.54-13.18ZM323.88,182.97c-.13,3.82,1.1,6.85,4.02,9.25,2.76,2.41,6.23,3.43,10.6,3.05,4.03-.35,7.76-2,10.88-4.91,2.95-2.9,4.57-6.19,4.7-10.01.13-3.65-1.27-6.68-4.03-9.08-2.93-2.39-6.57-3.4-10.6-3.06-4.36.38-7.93,2.01-10.88,4.91-3.11,2.92-4.57,6.19-4.7,9.84ZM381.39,141.42l-24.66,2.13,3.15-89.14,24.67-2.13-1.22,34.53,23.82-2.06-.78,22.08-23.82,2.06-1.15,32.54Z"/>
      <g>
        <path class="cls-3" d="M304.06,39.26c-2.32.2-4.13-1.49-4.05-3.79l.68-19.29c.08-2.29,2.02-4.31,4.34-4.51,2.32-.2,4.13,1.49,4.05,3.79l-.68,19.29c-.08,2.29-2.02,4.31-4.34,4.51Z"/>
        <path class="cls-3" d="M274.1,44.91c2.29-.62,3.87-2.92,3.51-5.14l-2.94-18.64c-.35-2.22-2.49-3.51-4.78-2.89-2.29.62-3.87,2.92-3.51,5.14l2.94,18.64c.35,2.22,2.49,3.51,4.78,2.89Z"/>
        <path class="cls-3" d="M334.13,39.71c-2.26-.23-3.68-2.27-3.17-4.56l4.28-19.26c.51-2.29,2.75-3.96,5.02-3.73,2.26.23,3.68,2.27,3.17,4.56l-4.28,19.26c-.51,2.29-2.75,3.96-5.02,3.73Z"/>
      </g>
    </g>
  </g>
</svg>