<svg xmlns="http://www.w3.org/2000/svg" viewBox="0 0 13 13" width="13" height="13" overflow="hidden" preserveAspectRatio="xMidYMid meet" id="eaf-1456d-0"><defs><clipPath id="eaf-1456d-1"><rect x="0" y="0" width="13" height="13"></rect></clipPath></defs><g clip-path="url('#eaf-1456d-1')" style="isolation: isolate;"><g><path fill="#fff" d="m11 1c0.55 0 1 0.45 1 1l0 9c0 0.55 -0.45 1 -1 1l-9 0c-0.55 0 -1 -0.45 -1 -1l0 -9c0 -0.55 0.45 -1 1 -1l9 0" opacity="0.9"></path><path fill="#a1a1aa" d="m10.83 0l-8.66 0c-1.2 0 -2.17 0.97 -2.17 2.17l0 8.67c0 1.2 0.97 2.17 2.17 2.17l8.67 0c1.2 0 2.17 -0.97 2.17 -2.17l0 -8.67c0 -1.2 -0.97 -2.17 -2.17 -2.17l-0.01 0zm-4.33 11.92l-5.42 -1.83l0 -7.19c0 0 5.42 -1.82 5.42 -1.82l5.42 1.83l0 7.18c0 0 -5.41 1.82 -5.41 1.82l0 0l-0.01 0.01z"></path><g transform="matrix(0.3082 0 0 0.3324 4.4965 3.9596)"><polygon points="19.15,8.18 22.69,7.87 22.57,11.4 19.03,11.7 18.83,17.35 14.93,17.69 15.41,4 19.31,3.66 19.15,8.18" fill="#383838" transform="translate(-4.8462 -8.1784)"></polygon><path fill="#383838" d="m6.61 5.31c-3.29 0.2 -6.16 2.9 -6.56 6.17c-0.44 3.57 2.22 6.4 5.8 6.18c3.29 -0.2 6.17 -2.9 6.57 -6.18c0.44 -3.56 -2.22 -6.39 -5.81 -6.17zm2.56 6.17c-0.19 1.56 -1.56 2.84 -3.12 2.93c-1.7 0.1 -2.96 -1.24 -2.75 -2.93c0.19 -1.55 1.55 -2.83 3.11 -2.92c1.7 -0.11 2.96 1.23 2.76 2.92z" transform="translate(-4.8462 -8.1784)"></path><path fill="#383838" d="m16.33 19.75c-1.14 -1.04 -2.69 -1.44 -4.18 -1.33c-1.51 0.1 -2.97 0.71 -4.12 1.68c-1.14 0.97 -1.99 2.3 -2.2 3.82c-0.22 1.54 0.28 3.04 1.44 4.09c1.15 1.04 2.7 1.44 4.19 1.33c1.5 -0.1 2.96 -0.71 4.11 -1.68c1.15 -0.97 2 -2.3 2.21 -3.82c0.21 -1.54 -0.28 -3.04 -1.45 -4.09zm-1.87 4.1c-0.09 0.67 -0.48 1.25 -0.99 1.67c-0.51 0.41 -1.16 0.67 -1.82 0.72c-0.65 0.05 -1.34 -0.11 -1.85 -0.55c-0.52 -0.45 -0.76 -1.1 -0.66 -1.78c0.1 -0.67 0.49 -1.25 1 -1.67c0.51 -0.41 1.15 -0.67 1.81 -0.72c0.65 -0.05 1.34 0.11 1.86 0.55c0.52 0.45 0.75 1.1 0.65 1.78z" transform="translate(-4.8462 -8.1784)"></path><animateTransform attributeName="transform" type="translate" from="0 0" to="0 0" calcMode="discrete" dur="6000ms" repeatCount="indefinite"></animateTransform><animateMotion keyTimes="0;0.1833;0.2195;0.2917;0.3307;1" calcMode="spline" keySplines="0 0 1 1;0.75 0 0.75 0.9;0 0 1 1;0.75 0 0.75 0.9;0 0 1 1" dur="6000ms" repeatCount="indefinite" attributeName="transform" keyPoints="0.5335;0.5335;0.7668;0.7668;1;1" path="m6.5 7.1203l0 -1l0 -0.4372l0 0l0 0.4372" additive="sum"></animateMotion><animateTransform keyTimes="0;0.1833;0.2195;0.2557;0.2918;0.3307;1" calcMode="spline" keySplines="0 0 1 1;0.75 0 0.75 0.9;0.75 0 0.75 0.9;0.75 0 0.75 0.9;0.75 0 0.75 0.9;0 0 1 1" dur="6000ms" repeatCount="indefinite" attributeName="transform" values="0.3082 0.3324;0.3082 0.3324;0.4109 0.449;0.3184 0.3479;0.4109 0.449;0.3082 0.3324;0.3082 0.3324" type="scale" additive="sum"></animateTransform><animateTransform attributeName="transform" type="translate" from="-6.5 -6.5" to="-6.5 -6.5" calcMode="discrete" dur="6000ms" repeatCount="indefinite" additive="sum"></animateTransform></g></g></g></svg>