<?xml version="1.0" encoding="UTF-8"?><svg id="a" xmlns="http://www.w3.org/2000/svg" width="13" height="13" xmlns:xlink="http://www.w3.org/1999/xlink" viewBox="0 0 13 13"><defs><style>.c{fill:#334155;}.c,.d,.e{stroke-width:0px;}.d{fill:url(#b);}.e{fill:#fff;opacity:.9;}</style><linearGradient id="b" x1="6.5" y1="13" x2="6.5" y2="0" gradientUnits="userSpaceOnUse"><stop offset="0" stop-color="#3061e6"/><stop offset="1" stop-color="#faef73"/></linearGradient></defs><path class="e" d="M11,1c.55,0,1,.45,1,1v9c0,.55-.45,1-1,1H2c-.55,0-1-.45-1-1V2c0-.55.45-1,1-1h9"/><path class="d" d="M10.83,0H2.17C.97,0,0,.97,0,2.17v8.67c0,1.2.97,2.17,2.17,2.17h8.67c1.2,0,2.17-.97,2.17-2.17V2.17c0-1.2-.97-2.17-2.17-2.17ZM6.5,11.92l-5.42-1.83V2.9s5.42-1.82,5.42-1.82l5.42,1.83v7.18s-5.41,1.82-5.41,1.82h0Z"/><path class="c" d="M8.25,9.26h-3.45v-.96l1.56-1.51c.27-.26.46-.49.58-.7.12-.21.18-.43.18-.67v-.1c0-.24-.07-.43-.21-.56-.14-.13-.32-.19-.52-.19-.26,0-.45.08-.58.24-.13.16-.23.35-.29.58l-.81-.35c.05-.18.13-.36.22-.52.09-.17.21-.31.36-.44.14-.13.31-.23.51-.3s.42-.11.67-.11.49.04.7.12c.2.08.38.2.52.34.14.15.25.32.32.52.07.2.11.42.11.65s-.03.44-.1.63-.16.37-.27.54c-.11.17-.25.33-.4.49-.15.16-.31.31-.48.47l-1.05.95h2.43v.87Z"/></svg>