<?xml version="1.0" encoding="UTF-8"?><svg id="a" xmlns="http://www.w3.org/2000/svg" width="13" height="13" xmlns:xlink="http://www.w3.org/1999/xlink" viewBox="0 0 13 13"><defs><style>.c{fill:#334155;}.c,.d,.e{stroke-width:0px;}.d{fill:url(#b);}.e{fill:#fff;opacity:.9;}</style><linearGradient id="b" x1="6.5" y1="13" x2="6.5" y2="0" gradientUnits="userSpaceOnUse"><stop offset="0" stop-color="#3061e6"/><stop offset="1" stop-color="#faef73"/></linearGradient></defs><path class="e" d="M11,1c.55,0,1,.45,1,1v9c0,.55-.45,1-1,1H2c-.55,0-1-.45-1-1V2c0-.55.45-1,1-1h9"/><path class="d" d="M10.83,0H2.17C.97,0,0,.97,0,2.17v8.67c0,1.2.97,2.17,2.17,2.17h8.67c1.2,0,2.17-.97,2.17-2.17V2.17c0-1.2-.97-2.17-2.17-2.17ZM6.5,11.92l-5.42-1.83V2.9s5.42-1.82,5.42-1.82l5.42,1.83v7.18s-5.41,1.82-5.41,1.82h0Z"/><path class="c" d="M6.52,9.36c-.28,0-.54-.05-.76-.15-.22-.1-.41-.25-.57-.43s-.28-.41-.36-.68c-.08-.26-.12-.56-.12-.89,0-.39.05-.77.16-1.11.11-.35.25-.67.42-.96.17-.29.36-.55.57-.78.21-.23.42-.42.63-.58h1.27c-.29.23-.56.46-.79.67-.23.22-.43.43-.61.66-.17.22-.32.45-.43.69s-.2.5-.25.78l.06.02c.05-.11.1-.21.17-.31.06-.1.14-.19.23-.26.09-.08.19-.14.31-.18.12-.05.26-.07.41-.07.2,0,.4.04.57.12.18.08.33.19.46.34.13.15.23.33.31.54.07.21.11.44.11.7,0,.28-.04.53-.13.76-.08.23-.21.43-.36.6-.16.17-.34.3-.57.39-.22.09-.47.14-.74.14ZM6.52,8.55c.26,0,.47-.08.62-.24s.22-.39.22-.69v-.12c0-.3-.08-.53-.22-.69s-.35-.24-.62-.24-.47.08-.62.24c-.15.16-.22.39-.22.69v.12c0,.3.07.53.22.69.15.16.35.24.62.24Z"/></svg>