<?xml version="1.0" encoding="UTF-8"?><svg id="a" xmlns="http://www.w3.org/2000/svg" width="13" height="13" viewBox="0 0 13 13"><defs><style>.b{fill:#c99681;}.b,.c,.d{stroke-width:0px;}.c{fill:#404040;}.d{fill:#fff;opacity:.9;}</style></defs><path class="d" d="M11,1c.55,0,1,.45,1,1v9c0,.55-.45,1-1,1H2c-.55,0-1-.45-1-1V2c0-.55.45-1,1-1h9"/><path class="b" d="M11,1c.55,0,1,.45,1,1v9c0,.55-.45,1-1,1H2c-.55,0-1-.45-1-1V2c0-.55.45-1,1-1h9M11,0H2C.9,0,0,.9,0,2v9c0,1.1.9,2,2,2h9c1.1,0,2-.9,2-2V2c0-1.1-.9-2-2-2h0Z"/><path class="c" d="M8.03,4.66h-2.24l-.11,1.84h.05c.05-.12.11-.22.17-.32.06-.1.13-.18.21-.25.08-.07.17-.12.28-.16.11-.04.24-.06.39-.06.21,0,.41.04.6.12s.35.19.48.34c.14.15.24.33.32.55.08.22.12.46.12.73s-.04.53-.12.76c-.08.23-.2.43-.36.6-.16.17-.35.3-.58.4-.23.09-.49.14-.78.14-.23,0-.43-.03-.61-.08-.18-.05-.34-.13-.48-.22-.14-.09-.26-.2-.36-.33-.1-.12-.19-.25-.26-.39l.68-.58c.06.1.12.2.18.29.06.09.13.17.22.24s.18.12.28.16c.1.04.22.06.36.06.28,0,.49-.09.64-.26.15-.17.22-.41.22-.71v-.06c0-.28-.07-.51-.22-.67-.15-.16-.35-.24-.61-.24-.2,0-.37.04-.5.13-.13.09-.23.18-.31.28l-.77-.12.19-3.09h2.93v.9Z"/></svg>