<?xml version="1.0" encoding="UTF-8"?><svg id="a" xmlns="http://www.w3.org/2000/svg" width="13" height="13" version="1.1" xmlns:xlink="http://www.w3.org/1999/xlink" viewBox="0 0 13 13"><defs><style>.c{fill:url(#b);stroke:#0eaf57;stroke-linecap:round;stroke-linejoin:round;stroke-width:.2px;}.d{fill:#fff;isolation:isolate;opacity:.9;stroke-width:0px;}</style><linearGradient id="b" x1="6.5" y1="1.6" x2="6.5" y2="11.4" gradientUnits="userSpaceOnUse"><stop offset="0" stop-color="#a6e356"/><stop offset="1" stop-color="#48bd8e"/></linearGradient></defs><rect class="d" width="13" height="13" rx="2" ry="2"/><path class="c" d="M6.1,10.7c0,.8.9.8.9,0s0-.8,0-1.1c.2-1,1-1.8,2.1-1.8.4,0,.9-.1,1.3-.4,1-.6,1.5-1.6,1.6-2.7,0-1.1-.2-2.1-.6-3.1-.6,1.2-1.8,1.3-3,1.8-1.2.5-2.2,1.4-2.2,3.3-.3-1.6-1.3-2.3-2.2-2.6-1-.3-1.9-.3-2.5-1.2-.3.8-.6,1.7-.5,2.5,0,.8.6,1.7,1.5,2.1.4.2.9.3,1.4.3,1.1,0,2,.8,2.1,1.9,0,.3,0,.6,0,.9Z"/></svg>