<?xml version="1.0" encoding="UTF-8"?><svg id="a" xmlns="http://www.w3.org/2000/svg" width="13" height="13" xmlns:xlink="http://www.w3.org/1999/xlink" viewBox="0 0 13 13"><defs><style>.c{fill:url(#b);}.c,.d,.e{stroke-width:0px;}.d{fill:#404040;}.e{fill:#fff;opacity:.9;}</style><linearGradient id="b" x1="6.5" y1="13" x2="6.5" y2="0" gradientUnits="userSpaceOnUse"><stop offset="0" stop-color="#7199d1"/><stop offset="1" stop-color="#d6dfff"/></linearGradient></defs><path class="e" d="M11,1c.55,0,1,.45,1,1v9c0,.55-.45,1-1,1H2c-.55,0-1-.45-1-1V2c0-.55.45-1,1-1h9"/><path class="c" d="M10.83,0H2.17C.97,0,0,.97,0,2.17v8.67c0,1.2.97,2.17,2.17,2.17h8.67c1.2,0,2.17-.97,2.17-2.17V2.17c0-1.2-.97-2.17-2.17-2.17ZM6.5,11.92l-5.42-1.83V2.9s5.42-1.82,5.42-1.82l5.42,1.83v7.18s-5.41,1.82-5.41,1.82h0Z"/><path class="d" d="M6.5,9.36c-.29,0-.55-.04-.77-.12-.23-.08-.42-.19-.57-.33s-.27-.31-.35-.5c-.08-.19-.12-.41-.12-.64,0-.36.09-.65.27-.87s.42-.38.72-.47v-.06c-.25-.1-.45-.25-.6-.46s-.23-.48-.23-.8c0-.21.04-.4.11-.57s.18-.32.32-.45.32-.22.52-.3.44-.11.71-.11.5.04.71.11c.21.07.38.17.52.3s.25.28.32.45.11.36.11.57c0,.32-.08.59-.23.8s-.35.37-.6.46v.06c.3.09.54.25.72.47.18.22.27.51.27.87,0,.23-.04.44-.12.64-.08.19-.2.36-.35.5s-.34.25-.57.33c-.23.08-.48.12-.77.12ZM6.5,8.55c.27,0,.48-.07.62-.2.15-.14.22-.33.22-.58v-.17c0-.25-.07-.44-.22-.57-.14-.14-.35-.21-.62-.21s-.48.07-.62.21c-.15.14-.22.33-.22.57v.17c0,.25.07.44.22.58.14.14.35.2.62.2ZM6.5,6.05c.25,0,.44-.06.58-.19.13-.13.2-.3.2-.54v-.13c0-.23-.07-.4-.2-.53-.13-.13-.33-.19-.58-.19s-.44.06-.58.19c-.13.13-.2.3-.2.53v.13c0,.23.07.41.2.54.13.13.33.19.58.19Z"/></svg>