<?xml version="1.0" encoding="UTF-8"?>
<svg id="a" xmlns="http://www.w3.org/2000/svg" version="1.1" viewBox="0 0 13 13" width="13" height="13">
  <defs>
    <style>
      .cls-1 {
        fill: #334155;
      }

      .cls-1, .cls-2, .cls-3 {
        stroke-width: 0px;
      }

      .cls-4 {
        opacity: .9;
      }

      .cls-2 {
        fill: #a1a1aa;
      }

      .cls-3 {
        fill: #fff;
        opacity: .9;
      }
    </style>
  </defs>
  <g class="cls-4">
    <rect class="cls-3" x=".5" y=".5" width="12" height="12" rx="1.5" ry="1.5"/>
    <path class="cls-2" d="M11,1c.6,0,1,.5,1,1v9c0,.6-.4,1-1,1H2c-.5,0-1-.4-1-1V2c0-.5.5-1,1-1h9M11,0H2C.9,0,0,.9,0,2v9c0,1.1.9,2,2,2h9c1.1,0,2-.9,2-2V2c0-1.1-.9-2-2-2h0Z"/>
  </g>
  <path class="cls-1" d="M5,6.6c-.4,0-.7,0-1-.3-.3-.2-.5-.4-.7-.7-.2-.3-.3-.7-.3-1.1s0-.8.3-1.1.4-.6.7-.7c.3-.2.7-.2,1-.2s.7,0,1,.2c.3.2.5.4.7.7s.3.7.3,1.1,0,.8-.3,1.1-.4.6-.7.7c-.3.2-.7.3-1,.3ZM5,5.7c.3,0,.5,0,.7-.3.2-.2.3-.4.3-.7v-.4c0-.3,0-.6-.3-.7s-.4-.3-.7-.3-.5,0-.7.3c-.2.2-.3.4-.3.7v.4c0,.3,0,.6.3.7s.4.3.7.3ZM9.1,9c0,.4-.1.7-.3,1s-.5.5-.8.7-.8.2-1.3.2-.9,0-1.3-.2c-.4-.2-.7-.4-.8-.7-.2-.3-.3-.6-.3-1s0-.7.3-1c.2-.3.5-.5.8-.7s.8-.2,1.3-.2.9,0,1.3.2c.4.2.6.4.8.7.2.3.3.6.3,1ZM8.1,8.9c0-.3-.1-.5-.3-.6-.2-.2-.6-.3-1-.3s-.8,0-1.1.3c-.2.2-.3.4-.3.6h0c0,.4.1.6.3.8.2.2.6.3,1.1.3s.8,0,1-.3.3-.4.3-.6h0c0-.1,0-.1,0-.1ZM10.2,4.1v.9h-1.1v2h-1V2.1h1v2h1.1Z"/>
</svg>