<?xml version="1.0" encoding="UTF-8"?><svg id="a" xmlns="http://www.w3.org/2000/svg" width="13" height="13" viewBox="0 0 13 13"><defs><style>.b{opacity:.8;}.c{fill:#d32f2f;}.c,.d,.e{stroke-width:0px;}.d{fill:#404040;}.e{fill:#fff;opacity:.9;}</style></defs><path class="e" d="M12.14,7.48c-.94,1.7-2.99,4.03-4.77,5.22-.31.18-.68.35-1.04.28C2.68,11.17-1.49,5.85.53,1.89,1.61-.38,4.67-.63,6.06,1.45c.38.42.63.3.99-.13C8,.03,9.82-.43,11.18.46c2.24,1.38,2.19,4.74,1.03,6.88l-.07.14Z"/><g class="b"><path class="c" d="M9.62,1h0c.37,0,.71.1,1.03.32,1.63,1,1.66,3.73.66,5.57l-.06.11c-.91,1.65-2.88,3.82-4.42,4.85-.13.08-.22.11-.27.13-2-1.07-4.39-3.44-5.26-6.06-.45-1.36-.41-2.56.12-3.61.38-.8,1.14-1.29,2-1.29.73,0,1.39.36,1.81.98.03.04.05.07.08.11.35.4.75.6,1.18.6.7,0,1.14-.53,1.33-.75.01-.02.03-.03.04-.05.41-.56,1.08-.91,1.76-.91M9.62,0c-.98,0-1.96.49-2.56,1.32-.21.25-.38.4-.56.4-.13,0-.27-.08-.43-.26C5.42.49,4.42.03,3.43.03,2.27.03,1.11.66.53,1.89c-2.01,3.97,2.15,9.29,5.8,11.1.06.01.11.02.17.02.3,0,.61-.14.87-.3,1.78-1.19,3.84-3.52,4.77-5.22l.07-.14c1.17-2.14,1.21-5.51-1.03-6.88C10.7.15,10.16,0,9.62,0h0Z"/></g><path class="d" d="M5.01,9.26v-.84h1.37v-3.91h-.06l-1.08,1.42-.58-.54,1.23-1.62h1.42v4.65h1.14v.84h-3.43Z"/></svg>