<svg xmlns="http://www.w3.org/2000/svg" viewBox="0 0 13 13" width="13" height="13" overflow="hidden" preserveAspectRatio="xMidYMid meet" id="eaf-e62b-0"><defs><clipPath id="eaf-e62b-1"><rect x="0" y="0" width="13" height="13"></rect></clipPath></defs><g clip-path="url('#eaf-e62b-1')" style="isolation: isolate;"><g><path fill="#fff" d="m11 1c0.55 0 1 0.45 1 1l0 9c0 0.55 -0.45 1 -1 1l-9 0c-0.55 0 -1 -0.45 -1 -1l0 -9c0 -0.55 0.45 -1 1 -1l9 0" opacity="0.9"></path><path fill="#3061e6" d="m2.243 7.0897q-0.6757 0 -1.1444 -0.2399q-0.4687 -0.2399 -0.8057 -0.6299l0.6665 -0.6445q0.271 0.3149 0.6042 0.4797q0.3333 0.1648 0.7379 0.1648q0.4578 0 0.6903 -0.1978q0.2325 -0.1996 0.2325 -0.5365q0 -0.2637 -0.1501 -0.4285q-0.1501 -0.1648 -0.5621 -0.2399l-0.4944 -0.0751q-1.5674 -0.2472 -1.5674 -1.5216q0 -0.3534 0.13 -0.6372q0.1318 -0.2856 0.379 -0.4871q0.2472 -0.2032 0.5951 -0.3113q0.3497 -0.1099 0.7928 -0.1099q0.5933 0 1.0345 0.1959q0.4431 0.1941 0.7581 0.5768l-0.6757 0.6372q-0.1941 -0.2399 -0.4724 -0.39q-0.2765 -0.1501 -0.6976 -0.1501q-0.4266 0 -0.6409 0.1611q-0.2142 0.1611 -0.2142 0.4541q0 0.3003 0.1721 0.4431q0.174 0.141 0.5566 0.2087l0.4871 0.0897q0.7947 0.1428 1.1737 0.5072q0.379 0.3625 0.379 1.0162q0 0.3754 -0.1318 0.6793q-0.1318 0.3021 -0.3827 0.5237q-0.2509 0.2216 -0.6152 0.3424q-0.3625 0.119 -0.835 0.119zm2.9547 -0.0897l0 -5.235l2.3547 0q0.3607 0 0.6482 0.1172q0.2893 0.1154 0.4907 0.3296q0.2032 0.2124 0.3076 0.5127q0.1062 0.3003 0.1062 0.661q0 0.3662 -0.1062 0.6628q-0.1044 0.2966 -0.3076 0.5109q-0.2014 0.2124 -0.4907 0.3296q-0.2875 0.1154 -0.6482 0.1154l-1.3641 0l0 1.9958l-0.9906 0zm0.9906 -2.8491l1.2744 0q0.2856 0 0.4504 -0.1538q0.1648 -0.1538 0.1648 -0.4395l0 -0.3442q0 -0.2856 -0.1648 -0.4358q-0.1648 -0.1501 -0.4504 -0.1501l-1.2744 0l0 1.5234zm5.8713 2.9388q-0.5164 0 -0.9375 -0.1721q-0.4193 -0.1721 -0.7159 -0.5164q-0.2966 -0.3461 -0.4614 -0.8478q-0.1648 -0.5035 -0.1648 -1.1719q0 -0.6592 0.1648 -1.1646q0.1648 -0.5072 0.4614 -0.8514q0.2966 -0.3461 0.7159 -0.5182q0.4211 -0.1721 0.9375 -0.1721q0.5182 0 0.9375 0.1721q0.4211 0.1721 0.7196 0.5182q0.3003 0.3442 0.4614 0.8514q0.1611 0.5054 0.1611 1.1646q0 0.6683 -0.1611 1.1719q-0.1611 0.5017 -0.4614 0.8478q-0.2985 0.3442 -0.7196 0.5164q-0.4193 0.1721 -0.9375 0.1721zm0 -0.8771q0.5621 0 0.8954 -0.3754q0.3351 -0.3754 0.3351 -1.0492l0 -0.8112q0 -0.6738 -0.3351 -1.0492q-0.3333 -0.3754 -0.8954 -0.3754q-0.5621 0 -0.8972 0.3754q-0.3333 0.3754 -0.3333 1.0492l0 0.8112q0 0.6738 0.3333 1.0492q0.3351 0.3754 0.8972 0.3754zm4.7851 -1.897l-0.5402 -1.0876l-0.022 0l0 3.772l-0.9375 0l0 -5.235l1.0876 0l1.5747 2.6843l0.5402 1.0876l0.022 0l0 -3.772l0.9375 0l0 5.235l-1.0876 0l-1.5747 -2.6843zm5.5206 2.774q-0.6757 0 -1.1444 -0.2399q-0.4687 -0.2399 -0.8057 -0.6299l0.6665 -0.6445q0.271 0.3149 0.6042 0.4797q0.3333 0.1648 0.7379 0.1648q0.4578 0 0.6903 -0.1978q0.2325 -0.1996 0.2325 -0.5365q0 -0.2637 -0.1501 -0.4285q-0.1501 -0.1648 -0.5621 -0.2399l-0.4944 -0.0751q-1.5674 -0.2472 -1.5674 -1.5216q0 -0.3534 0.13 -0.6372q0.1318 -0.2856 0.379 -0.4871q0.2472 -0.2032 0.5951 -0.3113q0.3497 -0.1099 0.7928 -0.1099q0.5933 0 1.0345 0.1959q0.4431 0.1941 0.7581 0.5768l-0.6757 0.6372q-0.1941 -0.2399 -0.4724 -0.39q-0.2765 -0.1501 -0.6976 -0.1501q-0.4266 0 -0.6409 0.1611q-0.2142 0.1611 -0.2142 0.4541q0 0.3003 0.1721 0.4431q0.174 0.141 0.5566 0.2087l0.4871 0.0897q0.7947 0.1428 1.1737 0.5072q0.379 0.3625 0.379 1.0162q0 0.3754 -0.1318 0.6793q-0.1318 0.3021 -0.3827 0.5237q-0.2509 0.2216 -0.6152 0.3424q-0.3625 0.119 -0.835 0.119zm2.9547 -0.0897l0 -5.235l3.4497 0l0 0.8771l-2.4591 0l0 1.2671l2.1735 0l0 0.8789l-2.1735 0l0 1.3348l2.4591 0l0 0.8771l-3.4497 0zm5.4906 0l-0.9906 0l0 -5.235l2.3621 0q0.3607 0 0.6445 0.1135q0.2856 0.1117 0.4834 0.3259q0.1996 0.2124 0.3076 0.5127q0.1099 0.3003 0.1099 0.6683q0 0.5402 -0.2435 0.9302q-0.2435 0.39 -0.7324 0.5548l1.073 2.1295l-1.1023 0l-0.9741 -2.0178l-0.9375 0l0 2.0178zm1.2744 -2.8491q0.2856 0 0.4504 -0.1538q0.1648 -0.1538 0.1648 -0.4395l0 -0.3442q0 -0.2856 -0.1648 -0.4358q-0.1648 -0.1501 -0.4504 -0.1501l-1.2744 0l0 1.5234l1.2744 0z" transform="translate(2.17 2.17)"><animateTransform attributeName="transform" type="translate" from="0 0" to="0 0" calcMode="discrete" dur="6000ms" repeatCount="indefinite"></animateTransform><animateMotion keyTimes="0;0.5;1" calcMode="linear" dur="6000ms" repeatCount="indefinite" attributeName="transform" keyPoints="0;0.5;1" path="m2.17 2.17l-25.4433 0l25.4433 0" additive="sum"></animateMotion></path><path fill="#a1a1aa" d="m10.83 0l-8.66 0c-1.2 0 -2.17 0.97 -2.17 2.17l0 8.67c0 1.2 0.97 2.17 2.17 2.17l8.67 0c1.2 0 2.17 -0.97 2.17 -2.17l0 -8.67c0 -1.2 -0.97 -2.17 -2.17 -2.17l-0.01 0zm-4.33 11.92l-5.42 -1.83l0 -7.19c0 0 5.42 -1.82 5.42 -1.82l5.42 1.83l0 7.18c0 0 -5.41 1.82 -5.41 1.82l0 0l-0.01 0.01z"></path></g></g></svg>