<?xml version="1.0" encoding="UTF-8"?><svg id="a" xmlns="http://www.w3.org/2000/svg" width="13" height="13" viewBox="0 0 13 13"><defs><style>.b{fill:#334155;}.b,.c,.d{stroke-width:0px;}.c{fill:#a1a1aa;}.d{fill:#fff;opacity:.9;}</style></defs><path class="d" d="M11,1c.55,0,1,.45,1,1v9c0,.55-.45,1-1,1H2c-.55,0-1-.45-1-1V2c0-.55.45-1,1-1h9"/><path class="b" d="M5.31,9.09l-.4-1.4h-1.77l-.39,1.4h-.96l1.67-5.5h1.17l1.65,5.5h-.98ZM4.05,4.54h-.04l-.63,2.26h1.31l-.64-2.26Z"/><path class="b" d="M7.02,3.59h1.81c.32,0,.62.06.88.17s.49.29.68.52.33.51.43.86.15.74.15,1.2-.05.86-.15,1.2c-.1.34-.25.63-.43.86-.19.23-.41.4-.68.52-.26.12-.56.17-.88.17h-1.81V3.59ZM8.83,8.17c.35,0,.63-.11.84-.34.21-.23.31-.58.31-1.05v-.87c0-.47-.1-.82-.31-1.05-.21-.23-.49-.34-.84-.34h-.87v3.65h.87Z"/><path class="c" d="M10.83,0H2.17C.97,0,0,.97,0,2.17v8.67c0,1.2.97,2.17,2.17,2.17h8.67c1.2,0,2.17-.97,2.17-2.17V2.17c0-1.2-.97-2.17-2.17-2.17ZM6.5,11.92l-5.42-1.83V2.9s5.42-1.82,5.42-1.82l5.42,1.83v7.18s-5.41,1.82-5.41,1.82h0Z"/></svg>